# xmcd
#
# Track frame offsets:
#	150
#	21010
#	41207
#	56553
#	68858
#	81967
#	95928
#	100809
#	117736
#	136795
#	157192
#	170511
#	181331
#	195614
#	217299
#	228570
#	239598
#	252192
#
# Disc length: 3487 seconds
#
# Revision: 0
# Processed by: cddbd v1.5.1PL0 Copyright (c) Steve Scherf et al.
# Submitted via: dBpowerAMP V4.0
#
DISCID=120d9d12
DTITLE=Various Artist - Southern Fried Boogie 
DYEAR=1997
DGENRE=Blues
TTITLE0=Tous les temps en tems
TTITLE1=Chicken heads
TTITLE2=At the louee
TTITLE3=New orleans shuffle
TTITLE4=My dixe darling
TTITLE5=Que se yo
TTITLE6=Street corner blues
TTITLE7=Jazz me blues
TTITLE8=Rusita
TTITLE9=Southboun train
TTITLE10=The battle of new orleans
TTITLE11=Cajun dixie
TTITLE12=Oh when the saints go marching in
TTITLE13=Frog i more rag
TTITLE14=Down in lafayette
TTITLE15=Les bon temps
TTITLE16=Leve tes fenetres haut
TTITLE17=Bourbon street march
EXTD=Southern Fried Boogie
EXTT0=
EXTT1=
EXTT2=
EXTT3=
EXTT4=
EXTT5=
EXTT6=
EXTT7=
EXTT8=
EXTT9=
EXTT10=
EXTT11=
EXTT12=
EXTT13=
EXTT14=
EXTT15=
EXTT16=
EXTT17=
PLAYORDER=
